<svg width="48" height="48" viewBox="0 0 48 48" fill="none" xmlns="http://www.w3.org/2000/svg">
<path d="M40.14 12.7001H30V15.5201H40.18L40.14 12.7001ZM38 32.1001C37.2308 32.6098 36.3224 32.8683 35.4 32.8401C34.7895 32.9037 34.1724 32.8406 33.5873 32.6548C33.0023 32.469 32.4619 32.1644 32 31.7601C31.1479 30.7907 30.7035 29.5295 30.76 28.2401H44C44.0945 26.8972 43.9798 25.5477 43.66 24.2401C43.3488 22.9964 42.806 21.8226 42.06 20.7801C41.3067 19.7707 40.3361 18.9436 39.22 18.3601C37.9761 17.7493 36.6056 17.4409 35.22 17.4601C33.9167 17.4516 32.6249 17.7032 31.42 18.2001C30.3167 18.6646 29.3172 19.3445 28.48 20.2001C27.6448 21.0723 26.998 22.1071 26.58 23.2401C26.1314 24.4632 25.9078 25.7573 25.92 27.0601C25.8985 28.3813 26.1153 29.6957 26.56 30.9401C26.9389 32.0662 27.5371 33.1062 28.32 34.0001C29.1318 34.8764 30.1296 35.5598 31.24 36.0001C32.4782 36.4718 33.7952 36.7026 35.12 36.6801C36.9788 36.738 38.8141 36.2514 40.4 35.2801C42.003 34.143 43.1566 32.4799 43.66 30.5801H39.24C39.0034 31.2083 38.5679 31.7421 38 32.1001ZM31.14 23.8601C31.2957 23.3614 31.554 22.9009 31.8985 22.5082C32.243 22.1155 32.6659 21.7994 33.14 21.5801C33.7683 21.2987 34.4518 21.1621 35.14 21.1801C35.6372 21.1376 36.1378 21.2032 36.6073 21.3723C37.0768 21.5415 37.5041 21.8102 37.86 22.1601C38.5405 22.9914 38.9767 23.9954 39.12 25.0601H30.82C30.8524 24.6536 30.9261 24.2515 31.04 23.8601H31.14ZM20.56 22.9001C21.5779 22.4762 22.4624 21.7852 23.12 20.9001C23.7269 19.9611 24.0274 18.857 23.98 17.7401C24.0177 16.7218 23.8192 15.7087 23.4 14.7801C23.0466 13.9759 22.4794 13.2841 21.76 12.7801C20.9985 12.2538 20.1319 11.899 19.22 11.7401C18.1417 11.5132 17.0418 11.4059 15.94 11.4201H4V36.5801H16.2C17.3133 36.5798 18.4221 36.4387 19.5 36.1601C20.5208 35.8939 21.4883 35.4542 22.36 34.8601C23.2051 34.2773 23.8924 33.4939 24.36 32.5801C24.8806 31.5599 25.1352 30.4248 25.1 29.2801C25.1379 27.8615 24.74 26.4655 23.96 25.2801C23.1212 24.0879 21.877 23.2419 20.46 22.9001H20.56ZM9.54 15.7201H14.72C15.196 15.7177 15.6712 15.7579 16.14 15.8401C16.5724 15.9019 16.9876 16.0517 17.36 16.2801C17.7207 16.4841 18.013 16.7903 18.2 17.1601C18.4335 17.6028 18.544 18.1001 18.52 18.6001C18.5573 19.0305 18.4914 19.4637 18.328 19.8637C18.1645 20.2636 17.9081 20.6189 17.58 20.9001C16.8642 21.3921 16.0078 21.6378 15.14 21.6001H9.54V15.7201ZM19.22 30.6001C19.0129 31.0066 18.7025 31.3515 18.32 31.6001C17.9206 31.8485 17.4805 32.0245 17.02 32.1201C16.5082 32.2352 15.9845 32.2889 15.46 32.2801H9.46V25.3801H15.46C16.4896 25.335 17.5064 25.6225 18.36 26.2001C18.7456 26.5461 19.0443 26.9781 19.232 27.4611C19.4196 27.9441 19.4909 28.4644 19.44 28.9801C19.4919 29.5298 19.4166 30.0841 19.22 30.6001Z" fill="#F7F7F7"/>
</svg>
