<svg width="135" height="32" viewBox="0 0 135 32" fill="none" xmlns="http://www.w3.org/2000/svg">
<path d="M5.71543 18.6674C3.62857 18.6674 2.13257 19.3211 1.22743 20.6286C1.07657 20.8549 1.00114 21.0434 1.00114 21.1943C1.00114 21.4206 1.11429 21.5337 1.34057 21.5337C1.54171 21.5337 1.73029 21.3451 1.90629 20.968C2.33371 20.3646 2.92457 20.0629 3.67886 20.0629C4.45829 20.0629 5.06171 20.3143 5.48914 20.8171C5.94171 21.32 6.168 21.9737 6.168 22.7783C6.168 23.5829 5.87886 24.2491 5.30057 24.7771C4.74743 25.3051 4.01829 25.5691 3.11314 25.5691C2.208 25.5691 1.46629 25.2423 0.888 24.5886C0.309714 23.9349 0.0205712 23.0926 0.0205712 22.0617C0.0205712 21.0309 0.510857 20.088 1.49143 19.2331C2.472 18.3783 3.86743 17.9509 5.67771 17.9509C6.608 17.9509 7.52571 18.0891 8.43086 18.3657L12.2777 7.27771C12.6297 6.22171 13.0194 5.49257 13.4469 5.09028C14.1257 4.48686 15.0434 4.18514 16.2 4.18514L25.3646 30.0571H26.7977V30.6606H17.4446L16.6149 28.36C14.528 23.5074 11.9509 20.4777 8.88343 19.2709L6.58286 25.7954C6.33143 26.4743 6.20571 27.1154 6.20571 27.7189C6.20571 29.2777 7.33714 30.0571 9.6 30.0571H10.8446V30.6606H1.18971V30.0571C1.944 30.0571 2.57257 29.9817 3.07543 29.8309C3.57829 29.6549 4.00571 29.328 4.35771 28.8503C4.70971 28.3726 4.97371 27.9326 5.14971 27.5303C5.32571 27.1029 5.57714 26.4366 5.904 25.5314L8.16686 19.0446C7.33714 18.7931 6.52 18.6674 5.71543 18.6674ZM9.10971 18.592C11.3726 19.4217 13.3211 21.1063 14.9554 23.6457L11.1463 12.8217L9.10971 18.592ZM36.3492 15.6503H36.5377C36.94 14.7451 37.5057 14.016 38.2349 13.4629C38.964 12.8846 39.844 12.5954 40.8749 12.5954C41.9309 12.5954 42.8234 12.9474 43.5526 13.6514C44.3069 14.3303 44.684 15.16 44.684 16.1406C44.684 17.1211 44.3949 17.9383 43.8166 18.592C43.2383 19.2457 42.4966 19.5726 41.5914 19.5726C40.6863 19.5726 39.9446 19.3086 39.3663 18.7806C38.8132 18.2526 38.5366 17.5989 38.5366 16.8194C38.5366 16.0149 38.7629 15.3611 39.2154 14.8583C39.6932 14.3303 40.284 14.0663 40.988 14.0663C41.692 14.0663 42.2577 14.3177 42.6852 14.8206C42.8863 15.1977 43.0874 15.3863 43.2886 15.3863C43.5149 15.3863 43.628 15.2731 43.628 15.0469C43.628 14.896 43.5526 14.7074 43.4017 14.4811C42.7983 13.6766 41.9434 13.2743 40.8372 13.2743C37.7446 13.2743 36.1983 16.3669 36.1983 22.552V30.0571H39.0269V30.6606H26.8829V30.0571H29.2212V13.9154H26.5434V13.312H28.8063C31.5469 13.312 34.0612 13.0731 36.3492 12.5954V15.6503ZM54.6618 29.2274C55.6172 29.2274 56.2332 27.9703 56.5098 25.456L57.1887 25.5314C56.9624 27.392 56.4344 28.8377 55.6047 29.8686C54.7749 30.8743 53.5429 31.3771 51.9087 31.3771C48.5395 31.3771 46.8549 29.5417 46.8549 25.8709V13.9154H44.8938V13.312H45.1578C46.3395 13.312 47.8104 12.8594 49.5704 11.9543C50.4504 11.5017 51.2549 10.8229 51.9841 9.91771C52.7132 9.01257 53.2161 7.98171 53.4927 6.82514H53.9829V13.312H57.4904V13.9154H53.9829V27.6811C53.9829 28.712 54.2092 29.2274 54.6618 29.2274ZM71.6771 30.0571V30.6606H59.156V30.0571H61.5697V5.69371L59.1183 5.24114L59.2691 4.63771C61.3308 5.06514 63.4051 5.27885 65.492 5.27885C67.604 5.27885 69.7788 5.05257 72.0166 4.6C74.2794 4.12228 76.0017 3.88343 77.1834 3.88343C78.3651 3.88343 79.396 4.26057 80.276 5.01486C81.156 5.76914 81.596 6.78743 81.596 8.06971C81.596 9.32686 81.2063 10.3703 80.4268 11.2C79.6474 12.0046 78.7297 12.4069 77.6737 12.4069C76.6428 12.4069 75.7628 12.08 75.0337 11.4263C74.3297 10.7474 73.9777 9.93028 73.9777 8.97485C73.9777 8.01943 74.2668 7.20228 74.8451 6.52343C75.4486 5.84457 76.2154 5.50514 77.1457 5.50514C78.5537 5.50514 79.484 6.04571 79.9366 7.12686C79.9366 7.17714 79.9743 7.26514 80.0497 7.39085C80.1251 7.56686 80.2257 7.65486 80.3514 7.65486C80.5777 7.65486 80.6908 7.52914 80.6908 7.27771C80.6908 6.72457 80.364 6.14628 79.7103 5.54286C79.0566 4.91428 78.252 4.6 77.2966 4.6C76.3663 4.6 75.5743 4.65028 74.9206 4.75085C74.292 4.85143 73.4371 5.01486 72.356 5.24114C71.3 5.46743 70.2691 5.656 69.2634 5.80685V17.5737H70.772C72.2554 17.5737 73.324 17.2091 73.9777 16.48C74.6566 15.7509 74.996 14.5691 74.996 12.9349H75.5994V22.816H74.996C74.996 21.1817 74.6566 20 73.9777 19.2709C73.324 18.5417 72.2554 18.1771 70.772 18.1771H69.2634V30.0571H71.6771ZM92.3905 24.9657V21.4583C92.29 21.4583 92.202 21.4583 92.1265 21.4583C90.9448 21.4583 89.9517 21.7851 89.1471 22.4389C88.3425 23.0674 87.9402 24.0857 87.9402 25.4937C87.9402 26.8766 88.1414 27.8949 88.5437 28.5486C88.946 29.1771 89.4865 29.4914 90.1654 29.4914C90.8442 29.4914 91.3848 29.0137 91.7871 28.0583C92.1894 27.1029 92.3905 26.072 92.3905 24.9657ZM100.197 29.2274C101.153 29.2274 101.769 27.9703 102.045 25.456L102.724 25.5314C102.247 29.4286 100.499 31.3771 97.482 31.3771C96.2248 31.3771 95.2065 30.9623 94.4271 30.1326C93.6477 29.2777 93.2077 28.2594 93.1071 27.0777H92.8808C92.5288 28.4354 91.938 29.4914 91.1082 30.2457C90.2785 31 88.9585 31.3771 87.1482 31.3771C85.3631 31.3771 83.8545 30.9874 82.6225 30.208C81.4157 29.4034 80.8122 28.1337 80.8122 26.3989C80.8122 22.6526 84.6717 20.7794 92.3905 20.7794V19.5349C92.3905 17.096 92.0888 15.4869 91.4854 14.7074C91.2088 14.3554 90.794 14.0411 90.2408 13.7646C89.7128 13.488 89.0717 13.3497 88.3174 13.3497C86.8842 13.3497 85.6145 13.6766 84.5082 14.3303C83.4271 14.984 82.8865 15.7006 82.8865 16.48C82.8865 16.7063 82.9997 16.8194 83.226 16.8194C83.3768 16.8194 83.4774 16.7817 83.5277 16.7063C83.578 16.6057 83.6157 16.5177 83.6408 16.4423C83.666 16.3417 83.6911 16.2663 83.7162 16.216C83.7414 16.1406 83.7917 16.0274 83.8671 15.8766C83.9677 15.7257 84.194 15.5246 84.546 15.2731C84.898 15.0217 85.3757 14.896 85.9791 14.896C86.5825 14.896 87.098 15.1726 87.5254 15.7257C87.978 16.2537 88.2042 16.9074 88.2042 17.6869C88.2042 18.4663 87.9151 19.1326 87.3368 19.6857C86.7585 20.2137 86.0294 20.4777 85.1494 20.4777C84.2694 20.4777 83.5151 20.176 82.8865 19.5726C82.2831 18.944 81.9814 18.1897 81.9814 17.3097C81.9814 15.8514 82.6477 14.7074 83.9802 13.8777C85.3128 13.0229 87.2237 12.5954 89.7128 12.5954C92.2271 12.5954 94.226 12.9223 95.7094 13.576C97.1928 14.2297 98.1985 15.16 98.7265 16.3669C99.2545 17.5486 99.5185 19.1829 99.5185 21.2697V27.6811C99.5185 28.712 99.7448 29.2274 100.197 29.2274ZM131.482 29.2274C132.437 29.2274 133.053 27.9703 133.33 25.456L134.009 25.5314C133.783 27.392 133.255 28.8377 132.425 29.8686C131.595 30.8743 130.363 31.3771 128.729 31.3771C125.36 31.3771 123.675 29.5417 123.675 25.8709V13.84H121.714V13.312H122.77C124.555 13.312 126.013 12.7211 127.145 11.5394C128.301 10.3577 128.88 8.97486 128.88 7.39085C128.88 5.78171 128.264 4.424 127.032 3.31771C125.825 2.21143 123.952 1.65828 121.412 1.65828C118.873 1.65828 116.912 2.26171 115.529 3.46857C114.146 4.65028 113.455 6.02057 113.455 7.57943C113.455 10.0183 114.888 12.0423 117.754 13.6514L116.698 13.7646C115.642 13.2114 114.724 12.3943 113.945 11.3131C113.165 10.2069 112.776 8.98743 112.776 7.65486C112.776 5.79428 113.555 4.22286 115.114 2.94057C116.673 1.63314 118.747 0.979425 121.337 0.979425C124.48 0.979425 126.843 1.90971 128.427 3.77028C130.011 5.60571 130.803 8.78628 130.803 13.312H134.311V13.84H130.803V27.6811C130.803 28.712 131.029 29.2274 131.482 29.2274ZM114.737 30.3211C115.969 30.3211 117.037 29.8309 117.943 28.8503C118.848 27.8697 119.439 26.6503 119.715 25.192L119.791 24.8149H120.469C120.243 26.7509 119.489 28.3349 118.207 29.5669C116.924 30.7737 115.34 31.3771 113.455 31.3771C110.387 31.3771 107.973 30.56 106.213 28.9257C104.453 27.2914 103.573 24.9909 103.573 22.024C103.573 19.032 104.466 16.7189 106.251 15.0846C108.061 13.4251 110.488 12.5954 113.53 12.5954C115.667 12.5954 117.301 13.1234 118.433 14.1794C119.589 15.2354 120.168 16.3417 120.168 17.4983C120.168 18.6549 119.866 19.5474 119.263 20.176C118.684 20.8046 117.943 21.1189 117.037 21.1189C116.132 21.1189 115.391 20.8423 114.812 20.2891C114.259 19.736 113.983 19.0697 113.983 18.2903C113.983 17.4857 114.209 16.832 114.661 16.3291C115.139 15.8011 115.755 15.5371 116.509 15.5371C117.565 15.5371 118.257 16.04 118.584 17.0457C118.684 17.3726 118.823 17.536 118.999 17.536C119.225 17.536 119.338 17.4103 119.338 17.1589C119.338 17.0834 119.313 16.9451 119.263 16.744C118.559 14.6823 117.063 13.6514 114.775 13.6514C114.096 13.6514 113.517 13.84 113.04 14.2171C112.562 14.5691 112.197 14.984 111.946 15.4617C111.72 15.9394 111.544 16.5931 111.418 17.4229C111.267 18.4537 111.192 19.736 111.192 21.2697C111.192 22.8034 111.204 23.96 111.229 24.7394C111.28 25.5189 111.368 26.2983 111.493 27.0777C111.619 27.8571 111.808 28.4606 112.059 28.888C112.612 29.8434 113.505 30.3211 114.737 30.3211Z" fill="#FFB288"/>
</svg>
